<?xml version="1.0" encoding="UTF-8"?>
<svg width="500px" height="500px" viewBox="0 0 500 500" version="1.1" xmlns="http://www.w3.org/2000/svg" xmlns:xlink="http://www.w3.org/1999/xlink">
    <title>behance</title>
    <g id="behance" stroke="none" stroke-width="1" fill="none" fill-rule="evenodd">
        <path d="M211.111111,237.018831 C233.194444,226.495431 244.722222,210.571864 244.722222,185.786486 C244.722222,136.908059 208.194444,125 166.041667,125 L50,125 L50,370.361396 L169.305556,370.361396 C214.027778,370.361396 256.041667,348.96843 256.041667,299.120742 C256.041667,268.312102 241.388889,245.534478 211.111111,237.018831 L211.111111,237.018831 Z M104.097222,166.885904 L154.861111,166.885904 C174.375,166.885904 191.944444,172.355303 191.944444,194.925228 C191.944444,215.764331 178.263889,224.141512 158.958333,224.141512 L104.097222,224.141512 L104.097222,166.885904 L104.097222,166.885904 Z M161.944444,328.68319 L104.097222,328.68319 L104.097222,261.11188 L163.055556,261.11188 C186.875,261.11188 201.944444,271.012185 201.944444,296.143727 C201.944444,320.929106 183.958333,328.68319 161.944444,328.68319 L161.944444,328.68319 Z M410.902778,162.039601 L311.111111,162.039601 L311.111111,137.877319 L410.902778,137.877319 L410.902778,162.039601 L410.902778,162.039601 Z M450,284.097203 C450,231.549432 419.166667,187.725007 363.263889,187.725007 C308.958333,187.725007 272.083333,228.433952 272.083333,281.743284 C272.083333,337.060371 307.013889,375 363.263889,375 C405.833333,375 433.402778,355.89172 446.666667,315.252008 L403.472222,315.252008 C398.819444,330.414013 379.652778,338.445029 364.791667,338.445029 C336.111111,338.445029 321.041667,321.690667 321.041667,293.235946 L449.583333,293.235946 C449.791667,290.328164 450,287.212683 450,284.097203 Z M321.111111,262.496538 C322.708333,239.165051 338.263889,224.556909 361.736111,224.556909 C386.319444,224.556909 398.680556,238.957353 400.763889,262.496538 L321.111111,262.496538 Z" id="Shape" fill="#FFA24B" fill-rule="nonzero"></path>
    </g>
</svg>