<?xml version="1.0" encoding="UTF-8"?>
<svg width="500px" height="500px" viewBox="0 0 500 500" version="1.1" xmlns="http://www.w3.org/2000/svg" xmlns:xlink="http://www.w3.org/1999/xlink">
    <title>github</title>
    <g id="github" stroke="none" stroke-width="1" fill="none" fill-rule="evenodd">
        <path d="M183.790323,369.032258 C183.790323,370.645161 181.935484,371.935484 179.596774,371.935484 C176.935484,372.177419 175.080645,370.887097 175.080645,369.032258 C175.080645,367.419355 176.935484,366.129032 179.274194,366.129032 C181.693548,365.887097 183.790323,367.177419 183.790323,369.032258 Z M158.709677,365.403226 C158.145161,367.016129 159.758065,368.870968 162.177419,369.354839 C164.274194,370.16129 166.693548,369.354839 167.177419,367.741935 C167.66129,366.129032 166.129032,364.274194 163.709677,363.548387 C161.612903,362.983871 159.274194,363.790323 158.709677,365.403226 Z M194.354839,364.032258 C192.016129,364.596774 190.403226,366.129032 190.645161,367.983871 C190.887097,369.596774 192.983871,370.645161 195.403226,370.080645 C197.741935,369.516129 199.354839,367.983871 199.112903,366.370968 C198.870968,364.83871 196.693548,363.790323 194.354839,364.032258 Z M247.419355,55 C135.564516,55 50,139.919355 50,251.774194 C50,341.209677 106.290323,417.741935 186.693548,444.677419 C197.016129,446.532258 200.645161,440.16129 200.645161,434.919355 C200.645161,429.919355 200.403226,402.33871 200.403226,385.403226 C200.403226,385.403226 143.951613,397.5 132.096774,361.370968 C132.096774,361.370968 122.903226,337.903226 109.677419,331.854839 C109.677419,331.854839 91.2096774,319.193548 110.967742,319.435484 C110.967742,319.435484 131.048387,321.048387 142.096774,340.241935 C159.758065,371.370968 189.354839,362.419355 200.887097,357.096774 C202.741935,344.193548 207.983871,335.241935 213.790323,329.919355 C168.709677,324.919355 123.225806,318.387097 123.225806,240.806452 C123.225806,218.629032 129.354839,207.5 142.258065,193.306452 C140.16129,188.064516 133.306452,166.451613 144.354839,138.548387 C161.209677,133.306452 200,160.322581 200,160.322581 C216.129032,155.806452 233.467742,153.467742 250.645161,153.467742 C267.822581,153.467742 285.16129,155.806452 301.290323,160.322581 C301.290323,160.322581 340.080645,133.225806 356.935484,138.548387 C367.983871,166.532258 361.129032,188.064516 359.032258,193.306452 C371.935484,207.580645 379.83871,218.709677 379.83871,240.806452 C379.83871,318.629032 332.33871,324.83871 287.258065,329.919355 C294.677419,336.290323 300.967742,348.387097 300.967742,367.33871 C300.967742,394.516129 300.725806,428.145161 300.725806,434.758065 C300.725806,440 304.435484,446.370968 314.677419,444.516129 C395.322581,417.741935 450,341.209677 450,251.774194 C450,139.919355 359.274194,55 247.419355,55 Z M128.387097,333.145161 C127.33871,333.951613 127.580645,335.806452 128.951613,337.33871 C130.241935,338.629032 132.096774,339.193548 133.145161,338.145161 C134.193548,337.33871 133.951613,335.483871 132.580645,333.951613 C131.290323,332.66129 129.435484,332.096774 128.387097,333.145161 Z M119.677419,326.612903 C119.112903,327.66129 119.919355,328.951613 121.532258,329.758065 C122.822581,330.564516 124.435484,330.322581 125,329.193548 C125.564516,328.145161 124.758065,326.854839 123.145161,326.048387 C121.532258,325.564516 120.241935,325.806452 119.677419,326.612903 Z M145.806452,355.322581 C144.516129,356.370968 145,358.790323 146.854839,360.322581 C148.709677,362.177419 151.048387,362.419355 152.096774,361.129032 C153.145161,360.080645 152.66129,357.66129 151.048387,356.129032 C149.274194,354.274194 146.854839,354.032258 145.806452,355.322581 Z M136.612903,343.467742 C135.322581,344.274194 135.322581,346.370968 136.612903,348.225806 C137.903226,350.080645 140.080645,350.887097 141.129032,350.080645 C142.419355,349.032258 142.419355,346.935484 141.129032,345.080645 C140,343.225806 137.903226,342.419355 136.612903,343.467742 Z" id="Shape" fill="#FFA24B" fill-rule="nonzero"></path>
    </g>
</svg>