<svg width="1728" height="1200" viewBox="0 0 1728 1200" fill="none" xmlns="http://www.w3.org/2000/svg">
<g clip-path="url(#clip0_592_5127)">
<path d="M434.621 2358.46C434.621 2510.65 184.122 2868.46 -303.879 2907.46C-581.94 3017.05 -370.902 1782.27 -351.879 1523.96C-332.856 1265.65 -281.186 1910.58 -75.3786 1884.96C161.621 1855.46 434.622 2221.96 434.621 2358.46Z" fill="#FFC24B"/>
<g filter="url(#filter1_f_592_5127)">
<path d="M444.825 285.542C444.825 89.4474 906.834 -96.407 1231.5 -66C2123.5 -171 2050 652.5 1879 883C1724.68 1091.01 848.036 804.289 670.825 696.542C493.615 588.795 444.826 420 444.825 285.542Z" fill="#FFC24B"/>
</g>
</g>
<defs>
<filter id="filter1_f_592_5127" x="200.921" y="-319.106" width="2028.51" height="1519.8" filterUnits="userSpaceOnUse" color-interpolation-filters="sRGB">
<feFlood flood-opacity="0" result="BackgroundImageFix"/>
<feBlend mode="normal" in="SourceGraphic" in2="BackgroundImageFix" result="shape"/>
<feGaussianBlur stdDeviation="121.952" result="effect1_foregroundBlur_592_5127"/>
</filter>
<clipPath id="clip0_592_5127">
<rect width="1728" height="7054" fill="white"/>
</clipPath>
</defs>
</svg>
