<?xml version="1.0" encoding="UTF-8"?>
<svg width="500px" height="500px" viewBox="0 0 500 500" version="1.1" xmlns="http://www.w3.org/2000/svg" xmlns:xlink="http://www.w3.org/1999/xlink">
    <title>menuSat002</title>
    <g id="menuSat002" stroke="none" stroke-width="1" fill="none" fill-rule="evenodd">
        <path d="M250,50 C360.45695,50 450,139.54305 450,250 C450,360.45695 360.45695,450 250,450 C139.54305,450 50,360.45695 50,250 C50,139.54305 139.54305,50 250,50 Z M355,295 L225,295 C216.715729,295 210,301.715729 210,310 C210,318.284271 216.715729,325 225,325 L225,325 L355,325 C363.284271,325 370,318.284271 370,310 C370,301.715729 363.284271,295 355,295 L355,295 Z M355,235 L145,235 C136.715729,235 130,241.715729 130,250 C130,258.284271 136.715729,265 145,265 L145,265 L355,265 C363.284271,265 370,258.284271 370,250 C370,241.715729 363.284271,235 355,235 L355,235 Z M355,175 L185,175 C176.715729,175 170,181.715729 170,190 C170,198.284271 176.715729,205 185,205 L185,205 L355,205 C363.284271,205 370,198.284271 370,190 C370,181.715729 363.284271,175 355,175 L355,175 Z" id="Combined-Shape" fill="#FFA24B"></path>
        <path d="M373,58 C406.137085,58 433,84.862915 433,118 C433,127.734468 430.68181,136.927495 426.567374,145.057135 C406.530357,111.496749 377.174819,84.1458894 342.073265,66.5743354 C351.103394,61.1315364 361.685992,58 373,58 Z" id="Oval-2" fill="#FFA24B" opacity="0.5"></path>
    </g>
</svg>